<?xml version="1.0" encoding="UTF-8" standalone="no"?>
<!-- Created with Inkscape (http://www.inkscape.org/) -->

<svg
   version="1.1"
   id="svg1430"
   width="666.66669"
   height="666.66669"
   viewBox="0 0 666.66669 666.66669"
   xmlns="http://www.w3.org/2000/svg"
   xmlns:svg="http://www.w3.org/2000/svg">
  <defs
     id="defs1434" />
  <g
     id="g1438"
     transform="matrix(1.3333333,0,0,-1.3333333,0,666.66667)">
    <g
       id="g1454"
       transform="translate(340.1643,438.7324)">
      <path
         d="m 0,0 v -61.516 l 53.274,30.758 z"
         style="fill:#fcb85e;fill-opacity:1;fill-rule:nonzero;stroke:none"
         id="path1456" />
    </g>
    <g
       id="g1458"
       transform="translate(340.1643,377.2168)">
      <path
         d="M 0,0 53.274,-30.758 V 30.758 Z"
         style="fill:#ffaa2c;fill-opacity:1;fill-rule:nonzero;stroke:none"
         id="path1460" />
    </g>
    <g
       id="g1462"
       transform="translate(446.7132,500.0004)">
      <path
         d="M 0,0 V -61.268 L 53.275,-30.51 0.429,0 Z"
         style="fill:#fcb85e;fill-opacity:1;fill-rule:nonzero;stroke:none"
         id="path1464" />
    </g>
    <g
       id="g1466"
       transform="translate(446.7131,438.7324)">
      <path
         d="M 0,0 53.274,-30.758 V 30.758 Z"
         style="fill:#ffaa2c;fill-opacity:1;fill-rule:nonzero;stroke:none"
         id="path1468" />
    </g>
    <g
       id="g1470"
       transform="translate(340.1643,315.7007)">
      <path
         d="M 0,0 53.274,-30.758 V 30.758 Z"
         style="fill:#ffaa2c;fill-opacity:1;fill-rule:nonzero;stroke:none"
         id="path1472" />
    </g>
    <g
       id="g1474"
       transform="translate(499.9878,407.9745)">
      <path
         d="M 0,0 0.013,0.007 V 61.509 L 0,61.516 Z"
         style="fill:#ff6464;fill-opacity:1;fill-rule:nonzero;stroke:none"
         id="path1476" />
    </g>
    <g
       id="g1478"
       transform="translate(499.9878,407.9745)">
      <path
         d="M 0,0 0.013,-0.007 V 0.007 Z"
         style="fill:#ff4342;fill-opacity:1;fill-rule:nonzero;stroke:none"
         id="path1480" />
    </g>
    <g
       id="g1482"
       transform="translate(340.5927,500.0004)">
      <path
         d="M 0,0 52.846,-30.51 V 0 Z"
         style="fill:#044257;fill-opacity:1;fill-rule:nonzero;stroke:none"
         id="path1484" />
    </g>
    <g
       id="g1486"
       transform="translate(393.4387,284.9429)">
      <path
         d="m 0,0 v -61.516 l 53.274,30.758 z"
         style="fill:#0d5568;fill-opacity:1;fill-rule:nonzero;stroke:none"
         id="path1488" />
    </g>
    <g
       id="g1490"
       transform="translate(393.4387,223.4268)">
      <path
         d="M 0,0 53.274,-30.758 V 30.758 Z"
         style="fill:#044257;fill-opacity:1;fill-rule:nonzero;stroke:none"
         id="path1492" />
    </g>
    <g
       id="g1494"
       transform="translate(340.1653,377.2168)">
      <path
         d="M 0,0 -53.274,-30.758 0,-61.516 Z"
         style="fill:#ff6464;fill-opacity:1;fill-rule:nonzero;stroke:none"
         id="path1496" />
    </g>
    <g
       id="g1498"
       transform="translate(393.4387,346.459)">
      <path
         d="M 0,0 -53.273,30.758 V -30.758 Z"
         style="fill:#ff4342;fill-opacity:1;fill-rule:nonzero;stroke:none"
         id="path1500" />
    </g>
    <g
       id="g1502"
       transform="translate(499.9875,284.9429)">
      <path
         d="M 0,0 -53.274,-30.758 0,-61.516 Z"
         style="fill:#ffaa2c;fill-opacity:1;fill-rule:nonzero;stroke:none"
         id="path1504" />
    </g>
    <g
       id="g1506"
       transform="translate(499.9878,223.4268)">
      <path
         d="M 0,0 0.013,0.007 V 61.509 L 0,61.516 Z"
         style="fill:#fcb85e;fill-opacity:1;fill-rule:nonzero;stroke:none"
         id="path1508" />
    </g>
    <g
       id="g1510"
       transform="translate(499.9878,469.4904)">
      <path
         d="M 0,0 0.013,-0.007 V 0.007 Z"
         style="fill:#044257;fill-opacity:1;fill-rule:nonzero;stroke:none"
         id="path1512" />
    </g>
    <g
       id="g1514"
       transform="translate(127.0674,500.0004)">
      <path
         d="M 0,0 53.275,-30.758 V 0 Z"
         style="fill:#044257;fill-opacity:1;fill-rule:nonzero;stroke:none"
         id="path1516" />
    </g>
    <g
       id="g1518"
       transform="translate(180.342,500.0004)">
      <path
         d="M 0,0 V -30.758 L 53.275,0 Z"
         style="fill:#0d5568;fill-opacity:1;fill-rule:nonzero;stroke:none"
         id="path1520" />
    </g>
    <g
       id="g1522"
       transform="translate(393.4387,469.4902)">
      <path
         d="m 0,0 v -61.516 l 53.274,30.758 z"
         style="fill:#1dcdc3;fill-opacity:1;fill-rule:nonzero;stroke:none"
         id="path1524" />
    </g>
    <g
       id="g1526"
       transform="translate(393.4387,407.9746)">
      <path
         d="M 0,0 53.274,-30.758 V 30.758 Z"
         style="fill:#0d5568;fill-opacity:1;fill-rule:nonzero;stroke:none"
         id="path1528" />
    </g>
    <g
       id="g1530"
       transform="translate(393.4386,500.0004)">
      <path
         d="M 0,0 V -30.51 L 52.846,0 Z"
         style="fill:#ffaa2c;fill-opacity:1;fill-rule:nonzero;stroke:none"
         id="path1532" />
    </g>
    <g
       id="g1534"
       transform="translate(446.2845,500.0004)">
      <path
         d="M 0,0 -52.846,-30.51 0.429,-61.268 V 0 Z"
         style="fill:#37dbcf;fill-opacity:1;fill-rule:nonzero;stroke:none"
         id="path1536" />
    </g>
    <g
       id="g1538"
       transform="translate(73.7932,407.9746)">
      <path
         d="m 0,0 v -61.516 l 53.274,30.758 z"
         style="fill:#ff4342;fill-opacity:1;fill-rule:nonzero;stroke:none"
         id="path1540" />
    </g>
    <g
       id="g1542"
       transform="translate(73.7932,407.9746)">
      <path
         d="M 0,0 53.274,-30.758 V 30.758 Z"
         style="fill:#ff6464;fill-opacity:1;fill-rule:nonzero;stroke:none"
         id="path1544" />
    </g>
    <g
       id="g1546"
       transform="translate(446.7131,192.6689)">
      <path
         d="m 0,0 v -61.516 l 53.274,30.758 z"
         style="fill:#ff4342;fill-opacity:1;fill-rule:nonzero;stroke:none"
         id="path1548" />
    </g>
    <g
       id="g1550"
       transform="translate(446.7131,192.6689)">
      <path
         d="M 0,0 53.274,-30.758 V 30.758 Z"
         style="fill:#ff6464;fill-opacity:1;fill-rule:nonzero;stroke:none"
         id="path1552" />
    </g>
    <g
       id="g1554"
       transform="translate(446.7131,377.2168)">
      <path
         d="M 0,0 -53.274,30.758 V -30.758 Z"
         style="fill:#044257;fill-opacity:1;fill-rule:nonzero;stroke:none"
         id="path1556" />
    </g>
    <g
       id="g1558"
       transform="translate(233.6164,315.7007)">
      <path
         d="M 0,0 53.274,-30.758 V 30.758 Z"
         style="fill:#0d5568;fill-opacity:1;fill-rule:nonzero;stroke:none"
         id="path1560" />
    </g>
    <g
       id="g1562"
       transform="translate(286.8909,284.9429)">
      <path
         d="M 0,0 -53.274,30.758 V -30.758 Z"
         style="fill:#044257;fill-opacity:1;fill-rule:nonzero;stroke:none"
         id="path1564" />
    </g>
    <g
       id="g1566"
       transform="translate(286.8909,407.9746)">
      <path
         d="M 0,0 53.273,-30.758 V 30.758 Z"
         style="fill:#0d5568;fill-opacity:1;fill-rule:nonzero;stroke:none"
         id="path1568" />
    </g>
    <g
       id="g1570"
       transform="translate(286.8909,346.4585)">
      <path
         d="M 0,0 53.273,30.758 0,61.516 Z"
         style="fill:#044257;fill-opacity:1;fill-rule:nonzero;stroke:none"
         id="path1572" />
    </g>
    <g
       id="g1574"
       transform="translate(340.1653,315.7007)">
      <path
         d="M 0,0 -53.274,-30.758 0,-61.516 Z"
         style="fill:#1dcdc3;fill-opacity:1;fill-rule:nonzero;stroke:none"
         id="path1576" />
    </g>
    <g
       id="g1578"
       transform="translate(286.8909,284.9429)">
      <path
         d="M 0,0 53.273,30.758 0,61.516 Z"
         style="fill:#37dbcf;fill-opacity:1;fill-rule:nonzero;stroke:none"
         id="path1580" />
    </g>
    <g
       id="g1582"
       transform="translate(180.342,469.4902)">
      <path
         d="M 0,0 -53.274,-30.758 0,-61.516 Z"
         style="fill:#1dcdc3;fill-opacity:1;fill-rule:nonzero;stroke:none"
         id="path1584" />
    </g>
    <g
       id="g1586"
       transform="translate(127.0674,500.0004)">
      <path
         d="M 0,0 V -61.268 L 53.275,-30.51 0.429,0 Z"
         style="fill:#37dbcf;fill-opacity:1;fill-rule:nonzero;stroke:none"
         id="path1588" />
    </g>
    <g
       id="g1590"
       transform="translate(446.7131,192.6689)">
      <path
         d="M 0,0 -53.274,-30.758 0,-61.516 Z"
         style="fill:#1dcdc3;fill-opacity:1;fill-rule:nonzero;stroke:none"
         id="path1592" />
    </g>
    <g
       id="g1594"
       transform="translate(393.4387,161.9111)">
      <path
         d="M 0,0 53.274,30.758 0,61.516 Z"
         style="fill:#37dbcf;fill-opacity:1;fill-rule:nonzero;stroke:none"
         id="path1596" />
    </g>
    <g
       id="g1598"
       transform="translate(339.7353,500.0004)">
      <path
         d="M 0,0 -52.844,-30.51 0.429,-61.268 V 0 Z"
         style="fill:#37dbcf;fill-opacity:1;fill-rule:nonzero;stroke:none"
         id="path1600" />
    </g>
    <g
       id="g1602"
       transform="translate(286.8909,407.9746)">
      <path
         d="M 0,0 53.273,30.758 0,61.516 Z"
         style="fill:#1dcdc3;fill-opacity:1;fill-rule:nonzero;stroke:none"
         id="path1604" />
    </g>
    <g
       id="g1606"
       transform="translate(446.7131,377.2168)">
      <path
         d="M 0,0 53.274,-30.758 V 30.758 Z"
         style="fill:#37dbcf;fill-opacity:1;fill-rule:nonzero;stroke:none"
         id="path1608" />
    </g>
    <g
       id="g1610"
       transform="translate(446.7131,315.7007)">
      <path
         d="M 0,0 53.274,30.758 0,61.516 Z"
         style="fill:#1dcdc3;fill-opacity:1;fill-rule:nonzero;stroke:none"
         id="path1612" />
    </g>
    <g
       id="g1614"
       transform="translate(286.8909,469.4902)">
      <path
         d="M 0,0 -53.274,-30.758 0,-61.516 Z"
         style="fill:#ffaa2c;fill-opacity:1;fill-rule:nonzero;stroke:none"
         id="path1616" />
    </g>
    <g
       id="g1618"
       transform="translate(233.6166,500.0004)">
      <path
         d="M 0,0 V -61.268 L 53.275,-30.51 0.429,0 Z"
         style="fill:#fcb85e;fill-opacity:1;fill-rule:nonzero;stroke:none"
         id="path1620" />
    </g>
    <g
       id="g1622"
       transform="translate(180.342,407.9746)">
      <path
         d="M 0,0 -53.274,-30.758 0,-61.516 Z"
         style="fill:#ffaa2c;fill-opacity:1;fill-rule:nonzero;stroke:none"
         id="path1624" />
    </g>
    <g
       id="g1626"
       transform="translate(127.0676,377.2168)">
      <path
         d="M 0,0 53.274,30.758 0,61.516 Z"
         style="fill:#fcb85e;fill-opacity:1;fill-rule:nonzero;stroke:none"
         id="path1628" />
    </g>
    <g
       id="g1630"
       transform="translate(233.6164,438.7324)">
      <path
         d="M 0,0 -53.274,-30.758 0,-61.516 Z"
         style="fill:#ff4342;fill-opacity:1;fill-rule:nonzero;stroke:none"
         id="path1632" />
    </g>
    <g
       id="g1634"
       transform="translate(180.342,407.9746)">
      <path
         d="M 0,0 53.274,30.758 0,61.516 Z"
         style="fill:#ff6464;fill-opacity:1;fill-rule:nonzero;stroke:none"
         id="path1636" />
    </g>
    <g
       id="g1638"
       transform="translate(446.7131,315.7007)">
      <path
         d="M 0,0 -53.274,-30.758 0,-61.516 Z"
         style="fill:#ff4342;fill-opacity:1;fill-rule:nonzero;stroke:none"
         id="path1640" />
    </g>
    <g
       id="g1642"
       transform="translate(393.4387,284.9429)">
      <path
         d="M 0,0 53.274,30.758 0,61.516 Z"
         style="fill:#ff6464;fill-opacity:1;fill-rule:nonzero;stroke:none"
         id="path1644" />
    </g>
  </g>
</svg>
