<?xml version="1.0" encoding="UTF-8" standalone="no"?>
<!-- Created with Inkscape (http://www.inkscape.org/) -->

<svg
   version="1.1"
   id="svg162"
   width="793.70081"
   height="1122.5197"
   viewBox="0 0 793.7008 1122.5197"
   sodipodi:docname="backgroundX.svg"
   inkscape:export-filename="Rastergrafik2_Page 1.svg"
   inkscape:export-xdpi="96"
   inkscape:export-ydpi="96"
   inkscape:version="1.2.2 (b0a8486, 2022-12-01)"
   xmlns:inkscape="http://www.inkscape.org/namespaces/inkscape"
   xmlns:sodipodi="http://sodipodi.sourceforge.net/DTD/sodipodi-0.dtd"
   xmlns="http://www.w3.org/2000/svg"
   xmlns:svg="http://www.w3.org/2000/svg">
  <sodipodi:namedview
     id="namedview454"
     pagecolor="#ffffff"
     bordercolor="#000000"
     borderopacity="0.25"
     inkscape:showpageshadow="2"
     inkscape:pageopacity="0.0"
     inkscape:pagecheckerboard="0"
     inkscape:deskcolor="#d1d1d1"
     showgrid="false"
     inkscape:zoom="0.95373762"
     inkscape:cx="431.98464"
     inkscape:cy="213.37105"
     inkscape:window-width="1387"
     inkscape:window-height="1205"
     inkscape:window-x="0"
     inkscape:window-y="25"
     inkscape:window-maximized="0"
     inkscape:current-layer="svg162" />
  <defs
     id="defs166">
    <clipPath
       clipPathUnits="userSpaceOnUse"
       id="clipPath847">
      <g
         id="g851"
         transform="translate(-694.4069,-456.5791)">
        <path
           d="M 0,0 H 750 V 500 H 0 Z"
           id="path849" />
      </g>
    </clipPath>
    <clipPath
       clipPathUnits="userSpaceOnUse"
       id="clipPath859">
      <g
         id="g863"
         transform="translate(-222.4977,-407.4819)">
        <path
           d="M 0,0 H 750 V 500 H 0 Z"
           id="path861" />
      </g>
    </clipPath>
    <clipPath
       clipPathUnits="userSpaceOnUse"
       id="clipPath865">
      <g
         id="g869"
         transform="translate(-465.0094,-540.4443)">
        <path
           d="M 0,0 H 750 V 500 H 0 Z"
           id="path867" />
      </g>
    </clipPath>
    <clipPath
       clipPathUnits="userSpaceOnUse"
       id="clipPath883">
      <g
         id="g887"
         transform="translate(-630.9108,-509.2036)">
        <path
           d="M 0,0 H 750 V 500 H 0 Z"
           id="path885" />
      </g>
    </clipPath>
    <clipPath
       clipPathUnits="userSpaceOnUse"
       id="clipPath907">
      <g
         id="g911"
         transform="translate(-729.0963,-374.7886)">
        <path
           d="M 0,0 H 750 V 500 H 0 Z"
           id="path909" />
      </g>
    </clipPath>
    <clipPath
       clipPathUnits="userSpaceOnUse"
       id="clipPath913">
      <g
         id="g917"
         transform="translate(-464.4146,-379.812)">
        <path
           d="M 0,0 H 750 V 500 H 0 Z"
           id="path915" />
      </g>
    </clipPath>
    <clipPath
       clipPathUnits="userSpaceOnUse"
       id="clipPath943">
      <g
         id="g947"
         transform="translate(-418.6305,-442.3745)">
        <path
           d="M 0,0 H 750 V 500 H 0 Z"
           id="path945" />
      </g>
    </clipPath>
    <clipPath
       clipPathUnits="userSpaceOnUse"
       id="clipPath949">
      <g
         id="g953"
         transform="translate(-645.901,-364.375)">
        <path
           d="M 0,0 H 750 V 500 H 0 Z"
           id="path951" />
      </g>
    </clipPath>
    <clipPath
       clipPathUnits="userSpaceOnUse"
       id="clipPath955">
      <g
         id="g959"
         transform="translate(-660.2252,-315.626)">
        <path
           d="M 0,0 H 750 V 500 H 0 Z"
           id="path957" />
      </g>
    </clipPath>
    <clipPath
       clipPathUnits="userSpaceOnUse"
       id="clipPath1111">
      <g
         id="g1115"
         transform="translate(-514.3385,-317.8701)">
        <path
           d="M 0,0 H 750 V 500 H 0 Z"
           id="path1113" />
      </g>
    </clipPath>
    <clipPath
       clipPathUnits="userSpaceOnUse"
       id="clipPath1117">
      <g
         id="g1121"
         transform="translate(-514.3385,-334.3589)">
        <path
           d="M 0,0 H 750 V 500 H 0 Z"
           id="path1119" />
      </g>
    </clipPath>
    <clipPath
       clipPathUnits="userSpaceOnUse"
       id="clipPath1123">
      <g
         id="g1127"
         transform="translate(-498.2789,-317.8701)">
        <path
           d="M 0,0 H 750 V 500 H 0 Z"
           id="path1125" />
      </g>
    </clipPath>
    <clipPath
       clipPathUnits="userSpaceOnUse"
       id="clipPath1129">
      <g
         id="g1133"
         transform="translate(-498.2789,-334.3589)">
        <path
           d="M 0,0 H 750 V 500 H 0 Z"
           id="path1131" />
      </g>
    </clipPath>
    <clipPath
       clipPathUnits="userSpaceOnUse"
       id="clipPath1141">
      <g
         id="g1145"
         transform="translate(-419.4371,-387.9541)">
        <path
           d="M 0,0 H 750 V 500 H 0 Z"
           id="path1143" />
      </g>
    </clipPath>
    <clipPath
       clipPathUnits="userSpaceOnUse"
       id="clipPath1195">
      <g
         id="g1199"
         transform="translate(-710.525,-205.4668)">
        <path
           d="M 0,0 H 750 V 500 H 0 Z"
           id="path1197" />
      </g>
    </clipPath>
    <clipPath
       clipPathUnits="userSpaceOnUse"
       id="clipPath1201">
      <g
         id="g1205"
         transform="translate(-232.1627,-389.1636)">
        <path
           d="M 0,0 H 750 V 500 H 0 Z"
           id="path1203" />
      </g>
    </clipPath>
    <clipPath
       clipPathUnits="userSpaceOnUse"
       id="clipPath1213">
      <g
         id="g1217"
         transform="translate(-189.4225,-499.792)">
        <path
           d="M 0,0 H 750 V 500 H 0 Z"
           id="path1215" />
      </g>
    </clipPath>
    <clipPath
       clipPathUnits="userSpaceOnUse"
       id="clipPath1219">
      <g
         id="g1223"
         transform="translate(-249.2428,-499.0806)">
        <path
           d="M 0,0 H 750 V 500 H 0 Z"
           id="path1221" />
      </g>
    </clipPath>
  </defs>
  <g
     id="g170"
     transform="matrix(1.3333333,0,0,-1.3333333,-79.411331,666.66665)">
    <g
       id="g180"
       transform="translate(249.2428,499.0806)"
       clip-path="url(#clipPath1219)">
      <path
         d="m 0,0 26.223,-26.223 c 18.181,-18.182 47.661,-18.181 65.841,0.003 l 15.021,15.023 c 3.171,3.171 8.311,3.171 11.481,0 l 0.149,-0.148 c 3.297,-3.297 3.302,-8.591 0.033,-11.858 -5.035,-5.034 -39.839,-39.837 -47.669,-47.666 -16.584,-16.583 -16.585,-43.471 -10e-4,-60.055 16.583,-16.583 43.471,-16.583 60.054,0 l 145.482,145.483 32.033,-4.365 -52.96,-52.96 c -23.117,-23.117 -23.117,-60.596 0,-83.713 23.116,-23.116 60.595,-23.116 83.711,0 l 80.983,80.983 c 3.518,3.517 9.222,3.517 12.739,0 3.518,-3.518 3.518,-9.221 0,-12.739 L 313.193,-178.162 c -13.066,-13.066 -13.066,-34.25 0,-47.316 13.066,-13.065 34.249,-13.065 47.316,0 l 83.075,83.076 c 3.77,3.769 9.88,3.769 13.648,0 3.77,-3.769 3.77,-9.88 0,-13.649 l -1.454,-1.454 c -27.589,-27.59 -27.589,-72.322 0,-99.912 l 61.964,-61.963 V 40.003"
         style="fill:#a5e4dc;fill-opacity:1;fill-rule:nonzero;stroke:none"
         id="path182" />
    </g>
    <g
       id="g184"
       transform="translate(189.4225,499.792)"
       clip-path="url(#clipPath1213)">
      <path
         d="m 0,0 c 0,-35.861 -29.071,-64.932 -64.932,-64.932 -35.861,0 -64.932,29.071 -64.932,64.932 0,35.861 29.071,64.932 64.932,64.932 C -29.071,64.932 0,35.861 0,0"
         style="fill:#ffd047;fill-opacity:1;fill-rule:nonzero;stroke:none"
         id="path186" />
    </g>
    <g
       id="g192"
       transform="translate(232.1627,389.1636)"
       clip-path="url(#clipPath1201)">
      <path
         d="m 0,0 c -16.553,0 -29.966,13.413 -29.966,29.958 0,16.546 13.413,29.959 29.966,29.959 16.545,0 29.958,-13.413 29.958,-29.959 C 29.958,13.413 16.545,0 0,0 m 0,67.271 c -20.575,0 -37.319,-16.737 -37.319,-37.313 0,-20.575 16.744,-37.319 37.319,-37.319 20.575,0 37.312,16.744 37.312,37.319 0,20.576 -16.737,37.313 -37.312,37.313"
         style="fill:#a5e4dc;fill-opacity:1;fill-rule:nonzero;stroke:none"
         id="path194" />
    </g>
    <g
       id="g196"
       transform="translate(710.525,205.4668)"
       clip-path="url(#clipPath1195)">
      <path
         d="m 0,0 c 0,-9.7 -7.863,-17.563 -17.563,-17.563 -9.701,0 -17.564,7.863 -17.564,17.563 0,9.7 7.863,17.563 17.564,17.563 C -7.863,17.563 0,9.7 0,0"
         style="fill:#ffd047;fill-opacity:1;fill-rule:nonzero;stroke:none"
         id="path198" />
    </g>
    <g
       id="g232"
       transform="translate(419.4371,387.9541)"
       clip-path="url(#clipPath1141)">
      <path
         d="m 0,0 c 0,-10.54 -8.544,-19.083 -19.084,-19.083 -10.539,0 -19.083,8.543 -19.083,19.083 0,10.54 8.544,19.083 19.083,19.083 C -8.544,19.083 0,10.54 0,0"
         style="fill:#2c316d;fill-opacity:1;fill-rule:nonzero;stroke:none"
         id="path234" />
    </g>
    <g
       id="g240"
       transform="translate(498.2789,334.3589)"
       clip-path="url(#clipPath1129)">
      <path
         d="m 0,0 c 0,-1.743 -1.412,-3.156 -3.155,-3.156 -1.743,0 -3.157,1.413 -3.157,3.156 0,1.743 1.414,3.156 3.157,3.156 C -1.412,3.156 0,1.743 0,0"
         style="fill:#2c316d;fill-opacity:1;fill-rule:nonzero;stroke:none"
         id="path242" />
    </g>
    <g
       id="g244"
       transform="translate(498.2789,317.8701)"
       clip-path="url(#clipPath1123)">
      <path
         d="m 0,0 c 0,-1.743 -1.412,-3.156 -3.155,-3.156 -1.743,0 -3.157,1.413 -3.157,3.156 0,1.743 1.414,3.156 3.157,3.156 C -1.412,3.156 0,1.743 0,0"
         style="fill:#2c316d;fill-opacity:1;fill-rule:nonzero;stroke:none"
         id="path246" />
    </g>
    <g
       id="g248"
       transform="translate(514.3385,334.3589)"
       clip-path="url(#clipPath1117)">
      <path
         d="m 0,0 c 0,-1.743 -1.413,-3.156 -3.156,-3.156 -1.743,0 -3.157,1.413 -3.157,3.156 0,1.743 1.414,3.156 3.157,3.156 C -1.413,3.156 0,1.743 0,0"
         style="fill:#2c316d;fill-opacity:1;fill-rule:nonzero;stroke:none"
         id="path250" />
    </g>
    <g
       id="g252"
       transform="translate(514.3385,317.8701)"
       clip-path="url(#clipPath1111)">
      <path
         d="m 0,0 c 0,-1.743 -1.413,-3.156 -3.156,-3.156 -1.743,0 -3.157,1.413 -3.157,3.156 0,1.743 1.414,3.156 3.157,3.156 C -1.413,3.156 0,1.743 0,0"
         style="fill:#2c316d;fill-opacity:1;fill-rule:nonzero;stroke:none"
         id="path254" />
    </g>
    <g
       id="g356"
       transform="translate(660.2252,315.626)"
       clip-path="url(#clipPath955)">
      <path
         d="m 0,0 c 0,-4.305 -3.489,-7.794 -7.794,-7.794 -4.305,0 -7.794,3.489 -7.794,7.794 0,4.305 3.489,7.794 7.794,7.794 C -3.489,7.794 0,4.305 0,0"
         style="fill:#2c316d;fill-opacity:1;fill-rule:nonzero;stroke:none"
         id="path358" />
    </g>
    <g
       id="g360"
       transform="translate(645.901,364.375)"
       clip-path="url(#clipPath949)">
      <path
         d="M 0,0 127.182,127.182"
         style="fill:none;stroke:#ffffff;stroke-width:3;stroke-linecap:round;stroke-linejoin:miter;stroke-miterlimit:10;stroke-dasharray:none;stroke-opacity:1"
         id="path362" />
    </g>
    <g
       id="g364"
       transform="translate(418.6305,442.3745)"
       clip-path="url(#clipPath943)">
      <path
         d="M 0,0 66.593,66.593"
         style="fill:none;stroke:#ffffff;stroke-width:3;stroke-linecap:round;stroke-linejoin:miter;stroke-miterlimit:10;stroke-dasharray:none;stroke-opacity:1"
         id="path366" />
    </g>
    <g
       id="g384"
       transform="translate(464.4146,379.812)"
       clip-path="url(#clipPath913)">
      <path
         d="m 0,0 c 0,-4.598 -3.727,-8.324 -8.324,-8.324 -4.597,0 -8.324,3.726 -8.324,8.324 0,4.597 3.727,8.324 8.324,8.324 C -3.727,8.324 0,4.597 0,0"
         style="fill:#a5e4dc;fill-opacity:1;fill-rule:nonzero;stroke:none"
         id="path386" />
    </g>
    <g
       id="g388"
       transform="translate(729.0963,374.7886)"
       clip-path="url(#clipPath907)">
      <path
         d="m 0,0 c 0,-4.597 -3.727,-8.324 -8.324,-8.324 -4.597,0 -8.323,3.727 -8.323,8.324 0,4.597 3.726,8.324 8.323,8.324 C -3.727,8.324 0,4.597 0,0"
         style="fill:#f9f3ea;fill-opacity:1;fill-rule:nonzero;stroke:none"
         id="path390" />
    </g>
    <g
       id="g404"
       transform="translate(630.9108,509.2036)"
       clip-path="url(#clipPath883)">
      <path
         d="m 0,0 -60.896,-60.895 c -5.651,-5.651 -5.651,-14.814 0,-20.466 5.652,-5.652 14.815,-5.652 20.466,0 l 32.545,32.545 c 1.946,1.945 5.1,1.945 7.046,0 1.945,-1.946 1.945,-5.101 0,-7.046 l -11.072,-11.072 c -3.058,-3.058 -3.058,-8.015 0,-11.072 3.057,-3.057 8.015,-3.057 11.072,0 L 29,-48.167 c 6.691,6.692 16.752,7.961 24.722,3.808 1.864,-0.973 3.615,-2.242 5.18,-3.808 l 0.819,-0.817 58.043,58.043 C 117.764,9.059 0,0.671 0,0"
         style="fill:#c0f0e6;fill-opacity:1;fill-rule:nonzero;stroke:none"
         id="path406" />
    </g>
    <g
       id="g416"
       transform="translate(465.0094,540.4443)"
       clip-path="url(#clipPath865)">
      <path
         d="M 0,0 -117.183,-117.183"
         style="fill:none;stroke:#2c316d;stroke-width:3;stroke-linecap:round;stroke-linejoin:miter;stroke-miterlimit:10;stroke-dasharray:none;stroke-opacity:1"
         id="path418" />
    </g>
    <g
       id="g420"
       transform="translate(222.4977,407.4819)"
       clip-path="url(#clipPath859)">
      <path
         d="M 0,0 -29.39,-29.39"
         style="fill:none;stroke:#2c316d;stroke-width:3;stroke-linecap:round;stroke-linejoin:miter;stroke-miterlimit:10;stroke-dasharray:none;stroke-opacity:1"
         id="path422" />
    </g>
    <g
       id="g428"
       transform="translate(694.4069,456.5791)"
       clip-path="url(#clipPath847)">
      <path
         d="m 0,0 -4.594,4.458 c 0,0 49.268,55.729 50.424,56.885 1.156,1.156 35.495,-3.741 35.495,-3.741 L 26.585,0.482 C 19.392,-7.024 7.462,-7.241 0,0"
         style="fill:#c0f0e6;fill-opacity:1;fill-rule:nonzero;stroke:none"
         id="path430" />
    </g>
  </g>
</svg>
