<?xml version="1.0" standalone="no"?>
<!DOCTYPE svg PUBLIC "-//W3C//DTD SVG 20010904//EN"
 "http://www.w3.org/TR/2001/REC-SVG-20010904/DTD/svg10.dtd">
<svg version="1.0" xmlns="http://www.w3.org/2000/svg"
 width="151.000000pt" height="151.000000pt" viewBox="0 0 151.000000 151.000000"
 preserveAspectRatio="xMidYMid meet">
<metadata>
Created by potrace 1.14, written by Peter Selinger 2001-2017
</metadata>
<g transform="translate(0.000000,151.000000) scale(0.100000,-0.100000)"
fill="#000000" stroke="none">
<path d="M768 1495 c-2 -1 -39 -5 -83 -8 -89 -6 -225 -48 -299 -91 -216 -126
-358 -360 -369 -606 -19 -422 318 -775 737 -771 135 1 220 22 336 82 142 73
259 193 325 334 53 112 67 169 70 295 3 96 0 130 -19 206 -37 143 -106 260
-210 357 -76 72 -180 133 -275 163 -42 14 -208 43 -213 39z"/>
</g>
</svg>
